<svg xmlns="http://www.w3.org/2000/svg" width="52" height="40" viewBox="0 0 52 40">
    <g fill="none" fill-opacity=".5" fill-rule="evenodd">
        <g fill="#000" fill-rule="nonzero">
            <g>
                <g>
                    <g>
                        <path d="M29.914.033c.523 0 1.008.276 1.276.725l2.737 4.6h13.558c2.062 0 3.733 1.671 3.733 3.733v27.027c0 2.062-1.672 3.733-3.733 3.733H3.733C1.67 39.851 0 38.18 0 36.118V9.09C0 7.03 1.671 5.358 3.733 5.358h.647V4.344c0-.82.664-1.485 1.484-1.485h5.493c.82 0 1.485.665 1.485 1.485v1.014h4.448l2.738-4.6c.268-.45.752-.725 1.276-.725zM25.609 11.98c-5.869 0-10.626 4.757-10.626 10.625 0 5.869 4.758 10.626 10.626 10.626 5.868 0 10.625-4.757 10.625-10.626 0-5.868-4.757-10.625-10.625-10.625zm0 3.202c4.1 0 7.423 3.324 7.423 7.423 0 4.1-3.324 7.423-7.423 7.423-4.1 0-7.423-3.323-7.423-7.423s3.323-7.423 7.423-7.423zm19.547-5.097h-4.652c-.82 0-1.484.665-1.484 1.485 0 .82.664 1.485 1.484 1.485h4.652c.82 0 1.485-.665 1.485-1.485 0-.82-.665-1.485-1.485-1.485z" transform="translate(-406 -364) translate(360 216) translate(0 72) translate(46 76)"/>
                    </g>
                </g>
            </g>
        </g>
    </g>
</svg>
