<svg xmlns="http://www.w3.org/2000/svg" width="10" height="10" viewBox="0 0 10 10">
    <g fill="none" fill-rule="evenodd">
        <g class="g-filled" fill="#979797" fill-rule="nonzero" stroke="#979797">
            <g>
                <g>
                    <path d="M16.442 16l3.466-3.467c.123-.122.123-.32 0-.441-.122-.122-.32-.123-.441 0L16 15.558l-3.467-3.466c-.122-.123-.32-.123-.441 0-.122.122-.123.32 0 .441L15.558 16l-3.466 3.467c-.123.122-.123.32 0 .441.06.061.14.092.22.092.08 0 .16-.03.222-.092L16 16.442l3.467 3.466c.06.061.14.092.22.092.08 0 .16-.03.221-.092.123-.122.123-.32 0-.441L16.442 16z" transform="translate(-355 -339) translate(240 232) translate(104 96)"/>
                </g>
            </g>
        </g>
    </g>
</svg>
